<mxfile host="65bd71144e">
    <diagram id="aqkya4TFRdpiTSBKbrii" name="Flowchart">
        <mxGraphModel dx="2148" dy="1418" grid="1" gridSize="10" guides="1" tooltips="1" connect="1" arrows="1" fold="1" page="1" pageScale="1" pageWidth="827" pageHeight="1169" math="0" shadow="0">
            <root>
                <mxCell id="7Z-LrOooxTyzb09muiCP-0"/>
                <mxCell id="7Z-LrOooxTyzb09muiCP-1" parent="7Z-LrOooxTyzb09muiCP-0"/>
                <mxCell id="1" value="" style="edgeStyle=none;html=1;" edge="1" parent="7Z-LrOooxTyzb09muiCP-1" source="7Z-LrOooxTyzb09muiCP-2">
                    <mxGeometry relative="1" as="geometry">
                        <mxPoint x="414" y="170" as="targetPoint"/>
                    </mxGeometry>
                </mxCell>
                <mxCell id="7Z-LrOooxTyzb09muiCP-2" value="Start" style="strokeWidth=2;html=1;shape=mxgraph.flowchart.terminator;whiteSpace=wrap;" parent="7Z-LrOooxTyzb09muiCP-1" vertex="1">
                    <mxGeometry x="364" y="80" width="100" height="60" as="geometry"/>
                </mxCell>
                <mxCell id="5" value="" style="edgeStyle=none;html=1;" edge="1" parent="7Z-LrOooxTyzb09muiCP-1" source="2" target="4">
                    <mxGeometry relative="1" as="geometry"/>
                </mxCell>
                <mxCell id="9" style="edgeStyle=orthogonalEdgeStyle;rounded=0;html=1;entryX=0.5;entryY=0;entryDx=0;entryDy=0;entryPerimeter=0;" edge="1" parent="7Z-LrOooxTyzb09muiCP-1" source="2" target="8">
                    <mxGeometry relative="1" as="geometry"/>
                </mxCell>
                <mxCell id="2" value="for counter1 = 0, counter1 &amp;lt; 10, counter1++" style="strokeWidth=2;html=1;shape=mxgraph.flowchart.decision;whiteSpace=wrap;" vertex="1" parent="7Z-LrOooxTyzb09muiCP-1">
                    <mxGeometry x="237" y="170" width="353" height="100" as="geometry"/>
                </mxCell>
                <mxCell id="7" style="edgeStyle=orthogonalEdgeStyle;html=1;entryX=0;entryY=0.5;entryDx=0;entryDy=0;entryPerimeter=0;rounded=0;" edge="1" parent="7Z-LrOooxTyzb09muiCP-1" source="4" target="2">
                    <mxGeometry relative="1" as="geometry">
                        <Array as="points">
                            <mxPoint x="414" y="390"/>
                            <mxPoint x="210" y="390"/>
                            <mxPoint x="210" y="220"/>
                        </Array>
                    </mxGeometry>
                </mxCell>
                <mxCell id="4" value="random_numbers[counter1] = random.uniform(1, 100)" style="rounded=1;whiteSpace=wrap;html=1;absoluteArcSize=1;arcSize=14;strokeWidth=2;" vertex="1" parent="7Z-LrOooxTyzb09muiCP-1">
                    <mxGeometry x="261" y="300" width="306" height="60" as="geometry"/>
                </mxCell>
                <mxCell id="11" style="edgeStyle=orthogonalEdgeStyle;rounded=0;html=1;entryX=0;entryY=0.5;entryDx=0;entryDy=0;entryPerimeter=0;" edge="1" parent="7Z-LrOooxTyzb09muiCP-1" source="6" target="8">
                    <mxGeometry relative="1" as="geometry">
                        <Array as="points">
                            <mxPoint x="930" y="500"/>
                            <mxPoint x="690" y="500"/>
                            <mxPoint x="690" y="330"/>
                        </Array>
                    </mxGeometry>
                </mxCell>
                <mxCell id="6" value="sum += random_numbers[counter1]" style="rounded=1;whiteSpace=wrap;html=1;absoluteArcSize=1;arcSize=14;strokeWidth=2;" vertex="1" parent="7Z-LrOooxTyzb09muiCP-1">
                    <mxGeometry x="808" y="410" width="244" height="60" as="geometry"/>
                </mxCell>
                <mxCell id="10" value="" style="edgeStyle=orthogonalEdgeStyle;rounded=0;html=1;" edge="1" parent="7Z-LrOooxTyzb09muiCP-1" source="8" target="6">
                    <mxGeometry relative="1" as="geometry"/>
                </mxCell>
                <mxCell id="13" style="edgeStyle=orthogonalEdgeStyle;rounded=0;html=1;entryX=0.5;entryY=0;entryDx=0;entryDy=0;" edge="1" parent="7Z-LrOooxTyzb09muiCP-1" source="8" target="12">
                    <mxGeometry relative="1" as="geometry"/>
                </mxCell>
                <mxCell id="8" value="for counter1 = 0, counter1 &amp;lt; len(random_numbers), counter1++" style="strokeWidth=2;html=1;shape=mxgraph.flowchart.decision;whiteSpace=wrap;" vertex="1" parent="7Z-LrOooxTyzb09muiCP-1">
                    <mxGeometry x="720" y="280" width="420" height="100" as="geometry"/>
                </mxCell>
                <mxCell id="15" style="edgeStyle=orthogonalEdgeStyle;rounded=0;html=1;entryX=0.5;entryY=0;entryDx=0;entryDy=0;" edge="1" parent="7Z-LrOooxTyzb09muiCP-1" source="12" target="14">
                    <mxGeometry relative="1" as="geometry"/>
                </mxCell>
                <mxCell id="12" value="average = sum / len(random_numbers)" style="rounded=1;whiteSpace=wrap;html=1;absoluteArcSize=1;arcSize=14;strokeWidth=2;" vertex="1" parent="7Z-LrOooxTyzb09muiCP-1">
                    <mxGeometry x="1160" y="410" width="244" height="60" as="geometry"/>
                </mxCell>
                <mxCell id="17" style="edgeStyle=orthogonalEdgeStyle;rounded=0;html=1;entryX=0.5;entryY=0;entryDx=0;entryDy=0;entryPerimeter=0;" edge="1" parent="7Z-LrOooxTyzb09muiCP-1" source="14" target="16">
                    <mxGeometry relative="1" as="geometry"/>
                </mxCell>
                <mxCell id="14" value="Display average" style="shape=parallelogram;html=1;strokeWidth=2;perimeter=parallelogramPerimeter;whiteSpace=wrap;rounded=1;arcSize=12;size=0.23;" vertex="1" parent="7Z-LrOooxTyzb09muiCP-1">
                    <mxGeometry x="1199" y="500" width="166" height="60" as="geometry"/>
                </mxCell>
                <mxCell id="16" value="Stop" style="strokeWidth=2;html=1;shape=mxgraph.flowchart.terminator;whiteSpace=wrap;" vertex="1" parent="7Z-LrOooxTyzb09muiCP-1">
                    <mxGeometry x="1232" y="590" width="100" height="60" as="geometry"/>
                </mxCell>
            </root>
        </mxGraphModel>
    </diagram>
    <diagram id="KjG14Q_7bZ2Fs4syXYFA" name="Top Down">
        <mxGraphModel dx="1074" dy="760" grid="1" gridSize="10" guides="1" tooltips="1" connect="1" arrows="1" fold="1" page="1" pageScale="1" pageWidth="827" pageHeight="1169" math="0" shadow="0">
            <root>
                <mxCell id="0"/>
                <mxCell id="1" parent="0"/>
                <mxCell id="QtO_xw6DOo0jZK6YUWM9-8" value="" style="edgeStyle=none;html=1;" edge="1" parent="1" source="QtO_xw6DOo0jZK6YUWM9-1" target="QtO_xw6DOo0jZK6YUWM9-3">
                    <mxGeometry relative="1" as="geometry"/>
                </mxCell>
                <mxCell id="QtO_xw6DOo0jZK6YUWM9-9" style="edgeStyle=orthogonalEdgeStyle;html=1;entryX=0.5;entryY=0;entryDx=0;entryDy=0;rounded=0;" edge="1" parent="1" source="QtO_xw6DOo0jZK6YUWM9-1" target="QtO_xw6DOo0jZK6YUWM9-2">
                    <mxGeometry relative="1" as="geometry">
                        <Array as="points">
                            <mxPoint x="414" y="160"/>
                            <mxPoint x="260" y="160"/>
                        </Array>
                    </mxGeometry>
                </mxCell>
                <mxCell id="QtO_xw6DOo0jZK6YUWM9-10" style="edgeStyle=orthogonalEdgeStyle;html=1;entryX=0.5;entryY=0;entryDx=0;entryDy=0;rounded=0;" edge="1" parent="1" source="QtO_xw6DOo0jZK6YUWM9-1" target="QtO_xw6DOo0jZK6YUWM9-4">
                    <mxGeometry relative="1" as="geometry">
                        <Array as="points">
                            <mxPoint x="414" y="160"/>
                            <mxPoint x="570" y="160"/>
                        </Array>
                    </mxGeometry>
                </mxCell>
                <mxCell id="QtO_xw6DOo0jZK6YUWM9-1" value="Circumference" style="rounded=0;whiteSpace=wrap;html=1;" vertex="1" parent="1">
                    <mxGeometry x="354" y="80" width="120" height="60" as="geometry"/>
                </mxCell>
                <mxCell id="QtO_xw6DOo0jZK6YUWM9-11" value="" style="edgeStyle=orthogonalEdgeStyle;rounded=0;html=1;" edge="1" parent="1" source="QtO_xw6DOo0jZK6YUWM9-2" target="QtO_xw6DOo0jZK6YUWM9-5">
                    <mxGeometry relative="1" as="geometry"/>
                </mxCell>
                <mxCell id="QtO_xw6DOo0jZK6YUWM9-2" value="Input" style="rounded=0;whiteSpace=wrap;html=1;" vertex="1" parent="1">
                    <mxGeometry x="200" y="180" width="120" height="60" as="geometry"/>
                </mxCell>
                <mxCell id="QtO_xw6DOo0jZK6YUWM9-12" value="" style="edgeStyle=orthogonalEdgeStyle;rounded=0;html=1;" edge="1" parent="1" source="QtO_xw6DOo0jZK6YUWM9-3" target="QtO_xw6DOo0jZK6YUWM9-6">
                    <mxGeometry relative="1" as="geometry"/>
                </mxCell>
                <mxCell id="QtO_xw6DOo0jZK6YUWM9-3" value="Process" style="rounded=0;whiteSpace=wrap;html=1;" vertex="1" parent="1">
                    <mxGeometry x="354" y="180" width="120" height="60" as="geometry"/>
                </mxCell>
                <mxCell id="QtO_xw6DOo0jZK6YUWM9-13" value="" style="edgeStyle=orthogonalEdgeStyle;rounded=0;html=1;" edge="1" parent="1" source="QtO_xw6DOo0jZK6YUWM9-4" target="QtO_xw6DOo0jZK6YUWM9-7">
                    <mxGeometry relative="1" as="geometry"/>
                </mxCell>
                <mxCell id="QtO_xw6DOo0jZK6YUWM9-4" value="output" style="rounded=0;whiteSpace=wrap;html=1;" vertex="1" parent="1">
                    <mxGeometry x="510" y="180" width="120" height="60" as="geometry"/>
                </mxCell>
                <mxCell id="QtO_xw6DOo0jZK6YUWM9-5" value="Get radius" style="rounded=0;whiteSpace=wrap;html=1;" vertex="1" parent="1">
                    <mxGeometry x="200" y="280" width="120" height="60" as="geometry"/>
                </mxCell>
                <mxCell id="QtO_xw6DOo0jZK6YUWM9-6" value="circumference = tau * radius" style="rounded=0;whiteSpace=wrap;html=1;" vertex="1" parent="1">
                    <mxGeometry x="354" y="280" width="120" height="60" as="geometry"/>
                </mxCell>
                <mxCell id="QtO_xw6DOo0jZK6YUWM9-7" value="Display circumference" style="rounded=0;whiteSpace=wrap;html=1;" vertex="1" parent="1">
                    <mxGeometry x="510" y="280" width="120" height="60" as="geometry"/>
                </mxCell>
            </root>
        </mxGraphModel>
    </diagram>
</mxfile>